<svg width="25" height="24" viewBox="0 0 25 24" fill="none" xmlns="http://www.w3.org/2000/svg">
<path d="M2.1431 1.99893C1.5908 1.99443 1.1476 2.44663 1.1431 2.99893C1.1386 3.55123 1.5909 3.99443 2.1431 3.99893C2.8807 4.00493 3.4708 4.49883 3.9243 5.43643C4.3483 6.31293 4.4721 7.03423 4.4869 7.12393L5.6743 14.7801C6.038 16.6034 7.7662 17.9989 9.5806 17.9989H16.7051C18.5201 17.9989 20.2561 16.5905 20.6121 14.8114L21.8311 6.68643C22.1141 5.27263 21.0701 3.99893 19.5811 3.99893H5.4243C4.6725 2.76003 3.5263 2.01013 2.1431 1.99893ZM6.2993 5.99893H19.5811C19.8081 5.99893 19.9061 6.11923 19.8621 6.34273L18.6431 14.4677C18.4821 15.2647 17.5671 15.9989 16.7051 15.9989H9.5806C8.7196 15.9989 7.8119 15.2807 7.6431 14.4364L6.4869 6.81143C6.452 6.59873 6.3713 6.26163 6.2993 5.99893ZM8.6431 18.9989C7.8147 18.9989 7.1431 19.6705 7.1431 20.4989C7.1431 21.3273 7.8147 21.9989 8.6431 21.9989C9.4715 21.9989 10.1431 21.3273 10.1431 20.4989C10.1431 19.6705 9.4715 18.9989 8.6431 18.9989ZM17.6431 18.9989C16.8151 18.9989 16.1431 19.6705 16.1431 20.4989C16.1431 21.3273 16.8151 21.9989 17.6431 21.9989C18.4711 21.9989 19.1431 21.3273 19.1431 20.4989C19.1431 19.6705 18.4711 18.9989 17.6431 18.9989Z" fill="#B1B1B1"/>
</svg>
