<svg width="21" height="21" viewBox="0 0 21 21" fill="none" xmlns="http://www.w3.org/2000/svg">
<path fill-rule="evenodd" clip-rule="evenodd" d="M1.08743 2.69115C1.09118 2.2309 1.46051 1.85407 1.92076 1.85782C3.07343 1.86715 4.02859 2.49207 4.65509 3.52448H16.4524C17.6933 3.52448 18.5633 4.5859 18.3274 5.76406L17.3116 12.5349C17.0149 14.0175 15.5683 15.1911 14.0558 15.1911H8.11868C6.60668 15.1911 5.16651 14.0282 4.86343 12.5088L3.87393 6.12865C3.8616 6.0539 3.75843 5.45281 3.40509 4.7224C3.02718 3.94106 2.53543 3.52948 1.92076 3.52448C1.4606 3.52073 1.08368 3.1514 1.08743 2.69115ZM6.08743 17.2745C6.08743 16.5841 6.6471 16.0245 7.33743 16.0245C8.02777 16.0245 8.58743 16.5841 8.58743 17.2745C8.58743 17.9648 8.02777 18.5245 7.33743 18.5245C6.6471 18.5245 6.08743 17.9648 6.08743 17.2745ZM13.5874 17.2745C13.5874 16.5841 14.1474 16.0245 14.8374 16.0245C15.5274 16.0245 16.0874 16.5841 16.0874 17.2745C16.0874 17.9648 15.5274 18.5245 14.8374 18.5245C14.1474 18.5245 13.5874 17.9648 13.5874 17.2745Z" fill="#FD5A50"/>
</svg>
