<svg width="25" height="24" viewBox="0 0 25 24" fill="none" xmlns="http://www.w3.org/2000/svg">
<path d="M12.8335 21L11.3835 19.7C9.70016 18.1833 8.3085 16.875 7.2085 15.775C6.1085 14.675 5.2335 13.6917 4.5835 12.825C3.9335 11.9417 3.47516 11.1333 3.2085 10.4C2.9585 9.66666 2.8335 8.91666 2.8335 8.14999C2.8335 6.58333 3.3585 5.27499 4.4085 4.22499C5.4585 3.17499 6.76683 2.64999 8.3335 2.64999C9.20016 2.64999 10.0252 2.83333 10.8085 3.19999C11.5918 3.56666 12.2668 4.08333 12.8335 4.74999C13.4002 4.08333 14.0752 3.56666 14.8585 3.19999C15.6418 2.83333 16.4668 2.64999 17.3335 2.64999C18.9002 2.64999 20.2085 3.17499 21.2585 4.22499C22.3085 5.27499 22.8335 6.58333 22.8335 8.14999C22.8335 8.91666 22.7002 9.66666 22.4335 10.4C22.1835 11.1333 21.7335 11.9417 21.0835 12.825C20.4335 13.6917 19.5585 14.675 18.4585 15.775C17.3585 16.875 15.9668 18.1833 14.2835 19.7L12.8335 21ZM12.8335 18.3C14.4335 16.8667 15.7502 15.6417 16.7835 14.625C17.8168 13.5917 18.6335 12.7 19.2335 11.95C19.8335 11.1833 20.2502 10.5083 20.4835 9.92499C20.7168 9.325 20.8335 8.73333 20.8335 8.14999C20.8335 7.14999 20.5002 6.31666 19.8335 5.65C19.1668 4.98333 18.3335 4.64999 17.3335 4.64999C16.5502 4.64999 15.8252 4.87499 15.1585 5.32499C14.4918 5.75833 14.0335 6.31666 13.7835 6.99999H11.8835C11.6335 6.31666 11.1752 5.75833 10.5085 5.32499C9.84183 4.87499 9.11683 4.64999 8.3335 4.64999C7.3335 4.64999 6.50016 4.98333 5.8335 5.65C5.16683 6.31666 4.8335 7.14999 4.8335 8.14999C4.8335 8.73333 4.95016 9.325 5.1835 9.92499C5.41683 10.5083 5.8335 11.1833 6.4335 11.95C7.0335 12.7 7.85016 13.5917 8.8835 14.625C9.91683 15.6417 11.2335 16.8667 12.8335 18.3Z" fill="#B1B1B1"/>
</svg>
