<svg width="25" height="24" viewBox="0 0 25 24" fill="none" xmlns="http://www.w3.org/2000/svg">
<rect x="1.25" y="0.75" width="22.5" height="22.5" rx="11.25" stroke="#B1B1B1" stroke-width="1.5"/>
<path d="M12.5 12.75C12.9142 12.75 13.25 12.4142 13.25 12C13.25 11.5858 12.9142 11.25 12.5 11.25C12.0858 11.25 11.75 11.5858 11.75 12C11.75 12.4142 12.0858 12.75 12.5 12.75Z" stroke="#B1B1B1" stroke-width="1.5" stroke-linecap="round" stroke-linejoin="round"/>
<path d="M12.5 7.5C12.9142 7.5 13.25 7.16421 13.25 6.75C13.25 6.33579 12.9142 6 12.5 6C12.0858 6 11.75 6.33579 11.75 6.75C11.75 7.16421 12.0858 7.5 12.5 7.5Z" stroke="#B1B1B1" stroke-width="1.5" stroke-linecap="round" stroke-linejoin="round"/>
<path d="M12.5 18C12.9142 18 13.25 17.6642 13.25 17.25C13.25 16.8358 12.9142 16.5 12.5 16.5C12.0858 16.5 11.75 16.8358 11.75 17.25C11.75 17.6642 12.0858 18 12.5 18Z" stroke="#B1B1B1" stroke-width="1.5" stroke-linecap="round" stroke-linejoin="round"/>
</svg>
