<svg width="25" height="24" viewBox="0 0 25 24" fill="none" xmlns="http://www.w3.org/2000/svg">
<path d="M22 19V12.8768C22 11.4536 22 10.742 21.8179 10.0857C21.6565 9.5044 21.3913 8.95707 21.035 8.4702C20.6328 7.92061 20.0742 7.47966 18.9572 6.59778L18.9572 6.59775L17.4572 5.41354C15.6862 4.01542 14.8007 3.31635 13.8207 3.04796C12.9562 2.81118 12.0438 2.81118 11.1793 3.04796C10.1993 3.31635 9.31381 4.01541 7.54285 5.41354L6.04285 6.59775C4.92577 7.47965 4.36724 7.9206 3.96504 8.4702C3.60875 8.95707 3.34351 9.5044 3.18215 10.0857C3 10.742 3 11.4536 3 12.8768V19C3 19.9319 3 20.3978 3.15224 20.7654C3.35523 21.2554 3.74458 21.6448 4.23463 21.8478C4.60218 22 5.06812 22 6 22H6.875C6.99106 22 7.0491 22 7.09814 21.9976C8.12554 21.9471 8.94712 21.1255 8.99759 20.0981C9 20.0491 9 19.9911 9 19.875V17C9 15.067 10.567 13.5 12.5 13.5C14.433 13.5 16 15.067 16 17V19.875C16 19.9911 16 20.0491 16.0024 20.0981C16.0529 21.1255 16.8745 21.9471 17.9019 21.9976C17.9509 22 18.0089 22 18.125 22H19C19.9319 22 20.3978 22 20.7654 21.8478C21.2554 21.6448 21.6448 21.2554 21.8478 20.7654C22 20.3978 22 19.9319 22 19Z" fill="#916DF9"/>
</svg>
